<svg id="Capa_1" data-name="Capa 1" xmlns="http://www.w3.org/2000/svg" viewBox="0 0 3000 3000"><defs><style>.cls-1{fill:#fff;}</style></defs><title>logoacemich</title><path class="cls-1" d="M1447.16,1499.08c-3.79,23.49-7.21,44.71-10.63,65.93-4.91,30.51-10,61-14.63,91.54-1,6.19-3,8.8-9.84,8.71-30.29-.4-60.59-.17-92.69-.17,19.86-110,39.55-219.06,59.37-328.86h31.16c23.63,0,47.28.27,70.9-.25,7.18-.16,10,2,11.88,9,14.91,56.6,30.24,113.08,45.85,171.13,2.51-5.35,4.35-10,6.77-14.32q45-80.57,90.27-161c1.19-2.12,4.22-4.54,6.4-4.56,35.3-.25,70.6-.14,105.9-.07.51,0,1,.48,2.67,1.31-.83,9.85-1.59,20.19-2.6,30.5q-8.6,87.49-17.28,175c-3.67,37.13-7.52,74.25-10.85,111.42-.73,8.11-2.92,11.35-12,11.09-26.53-.76-53.1-.28-79.65-.28h-10.9c6.55-54.93,13-108.64,19.58-164.3-3.19,6-5.57,10.53-8,15-25.16,47-50.41,94-75.34,141.22-3.12,5.88-6.5,8.52-13.45,8.19a383.26,383.26,0,0,0-40.25,0c-8.21.49-10.88-2.86-12.71-10.17-12.27-49.2-24.93-98.3-37.48-147.43C1449.11,1505.6,1448.44,1503.5,1447.16,1499.08Z"/><path class="cls-1" d="M2534.75,1664.6H2433.49c4.28-31,8.46-61.47,12.76-92.65h-104.4c-2.26,15.84-4.57,31.88-6.84,47.93-1.83,13-3.38,26-5.61,39-.4,2.31-3.43,6-5.28,6-31.75.37-63.5.26-96,.26,0-3.44-.33-6.25,0-9q15.5-111.7,31.12-223.41c4.06-29.13,8.17-58.26,12.08-87.42.88-6.59,2.73-10.1,10.74-9.93,27.71.61,55.44.28,83.16.34,2.81,0,5.62.31,9.6.53-6.69,47.78-13.25,94.67-20,142.75h20.72c25.39,0,50.78-.12,76.16.15,5.81.07,8-1.6,8.78-7.64,5.6-42.48,11.64-84.9,17.54-127.34.61-4.4.87-8.47,7.39-8.41,30.34.31,60.69.22,91,.3a25.92,25.92,0,0,1,4.1,1Q2557.71,1500.67,2534.75,1664.6Z"/><path class="cls-1" d="M712.15,1665.12H668.34c-18.09,0-36.19-.2-54.28.1-5.47.09-7.49-1.66-8.45-7.13-4.66-26.7-10-53.29-14.63-80-1-5.57-3-7.06-8.43-7-28,.25-56,.29-84,0-5.56-.07-8.24,1.8-10.46,6.69q-18.26,40.21-37.18,80.12c-1.45,3-5.37,6.9-8.2,6.94-33.82.48-67.66.31-102.86.31,1.26-3.15,2-5.48,3.09-7.64Q421.51,1500.21,500,1342.92c2.64-5.29,5.74-6.85,11.41-6.82,40.56.24,81.13.3,121.69,0,6.33,0,8.56,2.07,9.82,7.92q34,156.79,68.32,313.55C711.7,1659.48,711.75,1661.5,712.15,1665.12ZM572.46,1478.65c-3.56-19.33-7-38-10.88-59.17l-27.37,59.17Z"/><path class="cls-1" d="M1320.59,1336.23c-4.1,29.82-8,58-11.95,86.9-4,0-7.14,0-10.3,0-43.46,0-86.93.16-130.39-.11-6.82,0-9.9,1.45-10.29,8.86-.49,9.55-2.37,19-3.8,29.7h82.75c-1.86,13.75-3.5,26.29-5.26,38.81-1.58,11.26-3.53,22.47-4.81,33.75-.61,5.42-2.56,7.38-8.23,7.3-21.87-.32-43.75-.13-65.63-.13h-10.25c-1.78,12.68-3.48,24.7-5.34,37.86h153.49c-4,29.08-7.91,56.95-11.85,85.33h-253.9c2.5-18.11,4.86-35.65,7.34-53.17q17.26-122.07,34.59-244.14c1.1-7.79,2.65-15.56,3.19-23.39.43-6,2.88-7.74,8.74-7.69,30.34.25,60.68.12,91,.12h150.89Z"/><path class="cls-1" d="M2178,1555.54c8.83,26.46,17.22,51.57,25.79,77.28-2.06,1.25-3.88,2.57-5.88,3.54-50.54,24.51-103.56,37.4-160,32.52-45.85-4-84.87-20.54-108.58-63-10.45-18.71-15.29-39.17-16.24-60.29-1.9-42.6,4.2-83.92,24.57-122,29.2-54.54,75.75-84,136.51-91.65,51.17-6.44,99.69,3.16,146.09,25.18,6.64,3.15,7.59,6,4.18,12.43-10.66,20.07-20.85,40.39-30.9,60.77-2.33,4.75-4.49,5.77-10,4.74-25.7-4.76-51.46-11.15-77.4-12.33-47.58-2.18-80.12,25.69-87.48,72.78a145.19,145.19,0,0,0-.25,45c3.63,22.29,20.09,35.1,42.8,36.88,35,2.75,68.33-5.38,101.07-16.69C2167.15,1559.05,2172.09,1557.48,2178,1555.54Z"/><path class="cls-1" d="M976.29,1555.83l26,77.41c-25.77,12.94-52,23.25-79.7,29.26-38.89,8.43-78,11-117,1-51.1-13.17-82.7-45.81-91-98.16-8.87-56.06,0-109.67,31.66-157.51,34.52-52.08,85.9-74.32,146.73-76.78,44.86-1.81,87.44,8,127.67,28,1.51.74,2.88,1.76,5,3.07q-18.62,37-36.67,73c-21.62-4.15-42.31-9.49-63.34-11.7-16-1.69-33-1.88-48.52,1.65-35.33,8-52.83,34.07-60.13,67.81a143.28,143.28,0,0,0-3.24,29.48c-.16,37.45,22.62,57.91,60.07,56.33,31.88-1.34,62.2-8.91,92-19.33C968.93,1558.28,972,1557.29,976.29,1555.83Z"/><path class="cls-1" d="M1904.54,1337.28c-2,15.09-4,30.33-6.17,45.56q-13.59,96.53-27.25,193c-3.82,27.13-7.5,54.28-11.34,81.41-.55,3.89-.46,8.1-6.72,8-30.64-.26-61.28-.15-91.92-.22-1.09,0-2.17-.55-4.12-1.07,2.45-17.72,4.86-35.26,7.31-52.79q14.52-103.92,29.08-207.84c2.87-20.48,5.61-41,8.84-61.42.37-2.3,3.54-5.91,5.45-5.93,31.22-.35,62.44-.23,93.66-.15C1902.14,1335.92,1902.92,1336.57,1904.54,1337.28Z"/><path class="cls-1" d="M2623.64,1593.42a37,37,0,0,1,14.39,2.81,35.86,35.86,0,0,1,12,8.2,35.15,35.15,0,0,1,7.56,11.65,38.28,38.28,0,0,1-.14,28.19,34.18,34.18,0,0,1-8.06,11.7,37.89,37.89,0,0,1-12,7.87,36,36,0,0,1-27.8-.09,36.24,36.24,0,0,1-11.89-8.27,37.76,37.76,0,0,1-7.86-11.82,35.19,35.19,0,0,1-2.71-13.63,35.92,35.92,0,0,1,2.89-14.2,37.17,37.17,0,0,1,8.27-12.09,35.14,35.14,0,0,1,11.6-7.71A36.33,36.33,0,0,1,2623.64,1593.42Zm0,6.7a30,30,0,0,0-11.38,2.15,29.42,29.42,0,0,0-9.52,6.26,30.55,30.55,0,0,0-6.72,9.91,29.86,29.86,0,0,0-2.3,11.63,29.37,29.37,0,0,0,2.15,11.19,29.08,29.08,0,0,0,6.38,9.53,30,30,0,0,0,9.77,6.75,29.09,29.09,0,0,0,11.53,2.34,30,30,0,0,0,11.4-2.22,30.77,30.77,0,0,0,9.79-6.38,28.24,28.24,0,0,0,6.58-9.6,31.15,31.15,0,0,0,.09-23,28.42,28.42,0,0,0-6.28-9.5,29.5,29.5,0,0,0-21.49-9Zm-15.44,9.05h16.11q8.51,0,12.94,2.94a9.74,9.74,0,0,1,4.43,8.66,10.62,10.62,0,0,1-2.25,6.81,12,12,0,0,1-6.27,4l8.91,17.67H2630l-7.53-16h-3.18v16h-11Zm11,6.91v10.72h3.91a9.26,9.26,0,0,0,5.41-1.3,4.5,4.5,0,0,0,1.79-3.89,4.8,4.8,0,0,0-1.86-4.21q-1.86-1.32-6-1.32Z"/></svg>