<svg xmlns="http://www.w3.org/2000/svg" xmlns:xlink="http://www.w3.org/1999/xlink" width="2048" zoomAndPan="magnify" viewBox="0 0 1536 1535.999932" height="2048" preserveAspectRatio="xMidYMid meet" version="1.0"><path fill="#ffffff" d="M 740.945312 767.527344 C 739.003906 779.554688 737.253906 790.421875 735.503906 801.285156 C 732.988281 816.90625 730.382812 832.515625 728.011719 848.152344 C 727.5 851.324219 726.476562 852.660156 722.976562 852.613281 C 707.464844 852.40625 691.953125 852.527344 675.515625 852.527344 C 685.6875 796.207031 695.765625 740.367188 705.914062 684.148438 L 721.867188 684.148438 C 733.96875 684.148438 746.078125 684.289062 758.167969 684.023438 C 761.847656 683.941406 763.289062 685.046875 764.253906 688.628906 C 771.886719 717.609375 779.734375 746.527344 787.726562 776.25 C 789.011719 773.507812 789.953125 771.128906 791.195312 768.917969 C 806.554688 741.414062 821.960938 713.9375 837.410156 686.484375 C 838.019531 685.398438 839.574219 684.160156 840.6875 684.148438 C 858.761719 684.023438 876.835938 684.078125 894.910156 684.113281 C 895.171875 684.113281 895.421875 684.359375 896.277344 684.785156 C 895.851562 689.828125 895.460938 695.121094 894.945312 700.402344 C 892.011719 730.265625 889.0625 760.128906 886.097656 790 C 884.21875 809.011719 882.246094 828.015625 880.542969 847.046875 C 880.167969 851.199219 879.046875 852.859375 874.398438 852.726562 C 860.816406 852.335938 847.210938 852.582031 833.617188 852.582031 L 828.039062 852.582031 C 831.390625 824.457031 834.691406 796.957031 838.0625 768.460938 C 836.429688 771.53125 835.210938 773.851562 833.964844 776.140625 C 821.085938 800.203125 808.15625 824.269531 795.390625 848.445312 C 793.792969 851.457031 792.0625 852.808594 788.503906 852.636719 C 781.636719 852.277344 774.765625 852.277344 767.898438 852.636719 C 763.695312 852.890625 762.328125 851.175781 761.390625 847.429688 C 755.109375 822.242188 748.625 797.101562 742.199219 771.949219 C 741.945312 770.867188 741.601562 769.792969 740.945312 767.527344 Z M 740.945312 767.527344 " fill-opacity="1" fill-rule="nonzero"/><path fill="#ffffff" d="M 1297.792969 852.273438 L 1245.945312 852.273438 C 1248.136719 836.402344 1250.277344 820.800781 1252.480469 804.839844 L 1199.027344 804.839844 C 1197.871094 812.949219 1196.6875 821.160156 1195.523438 829.378906 C 1194.589844 836.035156 1193.792969 842.691406 1192.652344 849.347656 C 1192.449219 850.527344 1190.898438 852.417969 1189.949219 852.417969 C 1173.691406 852.609375 1157.4375 852.550781 1140.796875 852.550781 C 1140.796875 850.789062 1140.628906 849.351562 1140.796875 847.945312 C 1146.085938 809.816406 1151.398438 771.6875 1156.730469 733.558594 C 1158.808594 718.644531 1160.914062 703.726562 1162.914062 688.796875 C 1163.367188 685.425781 1164.3125 683.628906 1168.414062 683.714844 C 1182.601562 684.027344 1196.800781 683.859375 1210.992188 683.886719 C 1212.429688 683.886719 1213.871094 684.046875 1215.90625 684.160156 C 1212.484375 708.625 1209.125 732.632812 1205.667969 757.246094 L 1216.277344 757.246094 C 1229.277344 757.246094 1242.277344 757.1875 1255.269531 757.324219 C 1258.246094 757.359375 1259.367188 756.503906 1259.765625 753.414062 C 1262.632812 731.664062 1265.726562 709.945312 1268.746094 688.214844 C 1269.058594 685.960938 1269.191406 683.878906 1272.53125 683.910156 C 1288.0625 684.066406 1303.601562 684.023438 1319.121094 684.0625 C 1319.835938 684.175781 1320.535156 684.347656 1321.222656 684.574219 C 1313.4375 740.421875 1305.628906 796.320312 1297.792969 852.273438 Z M 1297.792969 852.273438 " fill-opacity="1" fill-rule="nonzero"/><path fill="#ffffff" d="M 364.621094 852.542969 L 342.191406 852.542969 C 332.929688 852.542969 323.660156 852.4375 314.398438 852.59375 C 311.597656 852.636719 310.5625 851.742188 310.074219 848.941406 C 307.6875 835.273438 304.953125 821.65625 302.582031 807.980469 C 302.070312 805.128906 301.046875 804.367188 298.265625 804.398438 C 283.929688 804.527344 269.59375 804.546875 255.257812 804.398438 C 252.410156 804.363281 251.039062 805.320312 249.902344 807.824219 C 243.667969 821.546875 237.324219 835.222656 230.867188 848.84375 C 230.125 850.378906 228.117188 852.378906 226.667969 852.398438 C 209.351562 852.644531 192.027344 852.554688 174.003906 852.554688 C 174.648438 850.945312 175.027344 849.75 175.585938 848.644531 C 202.402344 794.953125 229.207031 741.261719 256 687.574219 C 257.351562 684.867188 258.9375 684.066406 261.84375 684.082031 C 282.609375 684.207031 303.378906 684.238281 324.148438 684.082031 C 327.386719 684.082031 328.53125 685.144531 329.175781 688.136719 C 340.78125 741.65625 352.441406 795.167969 364.15625 848.675781 C 364.390625 849.652344 364.414062 850.6875 364.621094 852.542969 Z M 293.097656 757.070312 C 291.277344 747.171875 289.515625 737.613281 287.527344 726.773438 L 273.515625 757.070312 Z M 293.097656 757.070312 " fill-opacity="1" fill-rule="nonzero"/><path fill="#ffffff" d="M 676.140625 684.148438 C 674.042969 699.417969 672.046875 713.84375 670.023438 728.640625 C 667.976562 728.640625 666.367188 728.640625 664.75 728.640625 C 642.5 728.640625 620.242188 728.722656 597.992188 728.585938 C 594.5 728.585938 592.921875 729.328125 592.722656 733.121094 C 592.472656 738.011719 591.507812 742.851562 590.777344 748.328125 L 633.144531 748.328125 C 632.191406 755.367188 631.351562 761.789062 630.449219 768.199219 C 629.640625 773.964844 628.644531 779.703125 627.988281 785.480469 C 627.675781 788.253906 626.675781 789.257812 623.773438 789.21875 C 612.578125 789.054688 601.375 789.152344 590.171875 789.152344 L 584.925781 789.152344 C 584.011719 795.644531 583.140625 801.796875 582.191406 808.535156 L 660.777344 808.535156 C 658.730469 823.425781 656.726562 837.691406 654.710938 852.222656 L 524.710938 852.222656 C 525.992188 842.953125 527.199219 833.972656 528.472656 825 C 534.363281 783.335938 540.265625 741.667969 546.179688 700 C 546.742188 696.011719 547.539062 692.035156 547.8125 688.027344 C 548.035156 684.953125 549.289062 684.0625 552.289062 684.089844 C 567.824219 684.214844 583.355469 684.148438 598.882812 684.148438 Z M 676.140625 684.148438 " fill-opacity="1" fill-rule="nonzero"/><path fill="#ffffff" d="M 1115.136719 796.4375 C 1119.65625 809.984375 1123.953125 822.839844 1128.339844 836.003906 C 1127.285156 836.644531 1126.355469 837.320312 1125.328125 837.816406 C 1099.453125 850.367188 1072.308594 856.964844 1043.410156 854.464844 C 1019.933594 852.417969 999.957031 843.949219 987.816406 822.210938 C 982.464844 812.632812 979.988281 802.15625 979.503906 791.34375 C 978.527344 769.53125 981.652344 748.375 992.082031 728.878906 C 1007.03125 700.953125 1030.867188 685.871094 1061.976562 681.953125 C 1088.175781 678.65625 1113.015625 683.570312 1136.773438 694.84375 C 1140.171875 696.457031 1140.660156 697.917969 1138.914062 701.210938 C 1133.457031 711.484375 1128.238281 721.890625 1123.09375 732.324219 C 1121.898438 734.753906 1120.792969 735.277344 1117.972656 734.75 C 1104.8125 732.3125 1091.625 729.042969 1078.34375 728.4375 C 1053.984375 727.320312 1037.324219 741.589844 1033.554688 765.699219 C 1032.304688 773.375 1032.265625 781.054688 1033.425781 788.742188 C 1035.285156 800.152344 1043.710938 806.710938 1055.339844 807.625 C 1073.257812 809.03125 1090.324219 804.867188 1107.085938 799.078125 C 1109.582031 798.234375 1112.109375 797.429688 1115.136719 796.4375 Z M 1115.136719 796.4375 " fill-opacity="1" fill-rule="nonzero"/><path fill="#ffffff" d="M 499.859375 796.585938 L 513.171875 836.21875 C 499.976562 842.84375 486.546875 848.121094 472.367188 851.199219 C 452.453125 855.515625 432.429688 856.832031 412.460938 851.710938 C 386.300781 844.96875 370.121094 828.257812 365.871094 801.453125 C 361.328125 772.75 365.871094 745.304688 382.078125 720.808594 C 399.753906 694.144531 426.0625 682.757812 457.207031 681.496094 C 480.175781 680.570312 501.976562 685.59375 522.574219 695.832031 C 523.347656 696.210938 524.046875 696.734375 525.132812 697.40625 C 518.777344 710.035156 512.519531 722.492188 506.359375 734.78125 C 495.289062 732.65625 484.695312 729.921875 473.925781 728.789062 C 465.734375 727.925781 457.03125 727.828125 449.085938 729.636719 C 430.996094 733.730469 422.035156 747.078125 418.296875 764.355469 C 417.222656 769.328125 416.667969 774.359375 416.640625 779.449219 C 416.558594 798.621094 428.222656 809.097656 447.394531 808.289062 C 463.71875 807.601562 479.242188 803.726562 494.5 798.390625 C 496.09375 797.839844 497.664062 797.332031 499.859375 796.585938 Z M 499.859375 796.585938 " fill-opacity="1" fill-rule="nonzero"/><path fill="#ffffff" d="M 975.125 684.6875 C 974.101562 692.414062 973.078125 700.214844 971.964844 708.015625 C 967.328125 740.964844 962.675781 773.902344 958.011719 806.828125 C 956.058594 820.71875 954.171875 834.621094 952.207031 848.511719 C 951.925781 850.503906 951.972656 852.660156 948.765625 852.609375 C 933.078125 852.476562 917.390625 852.53125 901.703125 852.496094 C 901.144531 852.496094 900.59375 852.214844 899.59375 851.949219 C 900.847656 842.875 902.082031 833.894531 903.335938 824.917969 C 908.292969 789.449219 913.257812 753.976562 918.226562 718.503906 C 919.695312 708.019531 921.097656 697.511719 922.75 687.058594 C 922.941406 685.878906 924.5625 684.03125 925.542969 684.023438 C 941.527344 683.84375 957.511719 683.902344 973.496094 683.945312 C 973.894531 683.992188 974.296875 684.324219 975.125 684.6875 Z M 975.125 684.6875 " fill-opacity="1" fill-rule="nonzero"/><path fill="#ffffff" d="M 1343.304688 815.832031 C 1345.855469 815.8125 1348.3125 816.292969 1350.671875 817.269531 C 1353.007812 818.246094 1355.058594 819.644531 1356.816406 821.46875 C 1358.507812 823.195312 1359.796875 825.183594 1360.6875 827.433594 C 1361.59375 829.753906 1362.039062 832.164062 1362.027344 834.65625 C 1362.015625 837.148438 1361.542969 839.550781 1360.613281 841.867188 C 1359.664062 844.15625 1358.289062 846.152344 1356.488281 847.855469 C 1354.699219 849.59375 1352.652344 850.9375 1350.34375 851.886719 C 1349.214844 852.355469 1348.050781 852.707031 1346.851562 852.941406 C 1345.652344 853.179688 1344.445312 853.296875 1343.222656 853.292969 C 1342 853.289062 1340.789062 853.164062 1339.59375 852.917969 C 1338.398438 852.675781 1337.234375 852.316406 1336.109375 851.839844 C 1333.792969 850.84375 1331.761719 849.429688 1330.023438 847.605469 C 1328.292969 845.84375 1326.953125 843.828125 1325.996094 841.554688 C 1325.066406 839.320312 1324.605469 836.996094 1324.609375 834.574219 C 1324.605469 832.050781 1325.097656 829.625 1326.089844 827.304688 C 1327.085938 824.957031 1328.5 822.894531 1330.324219 821.113281 C 1332.039062 819.398438 1334.015625 818.082031 1336.261719 817.167969 C 1338.523438 816.261719 1340.871094 815.816406 1343.304688 815.832031 Z M 1343.304688 819.261719 C 1341.289062 819.246094 1339.347656 819.613281 1337.476562 820.363281 C 1335.640625 821.109375 1334.015625 822.179688 1332.601562 823.566406 C 1331.117188 825.027344 1329.972656 826.71875 1329.160156 828.640625 C 1328.367188 830.546875 1327.976562 832.53125 1327.984375 834.597656 C 1327.972656 836.578125 1328.339844 838.488281 1329.085938 840.324219 C 1329.847656 842.171875 1330.9375 843.796875 1332.351562 845.203125 C 1333.785156 846.691406 1335.453125 847.84375 1337.355469 848.660156 C 1339.238281 849.464844 1341.207031 849.867188 1343.257812 849.859375 C 1345.277344 849.863281 1347.222656 849.484375 1349.09375 848.722656 C 1350.976562 847.957031 1352.644531 846.867188 1354.105469 845.457031 C 1355.574219 844.054688 1356.699219 842.414062 1357.476562 840.539062 C 1358.234375 838.652344 1358.617188 836.691406 1358.625 834.65625 C 1358.632812 832.621094 1358.265625 830.65625 1357.523438 828.765625 C 1356.78125 826.921875 1355.710938 825.300781 1354.304688 823.898438 C 1352.867188 822.410156 1351.191406 821.265625 1349.277344 820.464844 C 1347.367188 819.664062 1345.375 819.273438 1343.304688 819.292969 Z M 1335.398438 823.894531 L 1343.648438 823.894531 C 1346.550781 823.894531 1348.757812 824.398438 1350.273438 825.398438 C 1351.019531 825.882812 1351.59375 826.523438 1352 827.3125 C 1352.402344 828.105469 1352.585938 828.945312 1352.539062 829.835938 C 1352.574219 831.132812 1352.1875 832.296875 1351.386719 833.320312 C 1350.539062 834.351562 1349.46875 835.035156 1348.175781 835.367188 L 1352.738281 844.414062 L 1346.558594 844.414062 L 1342.703125 836.222656 L 1341.078125 836.222656 L 1341.078125 844.414062 L 1335.445312 844.414062 Z M 1341.03125 827.433594 L 1341.03125 832.921875 L 1343.03125 832.921875 C 1344.023438 832.992188 1344.949219 832.769531 1345.800781 832.253906 C 1346.113281 832.023438 1346.351562 831.730469 1346.511719 831.375 C 1346.675781 831.023438 1346.742188 830.652344 1346.71875 830.265625 C 1346.753906 829.847656 1346.6875 829.449219 1346.519531 829.066406 C 1346.347656 828.683594 1346.097656 828.363281 1345.765625 828.109375 C 1345.132812 827.65625 1344.105469 827.433594 1342.695312 827.433594 Z M 1341.03125 827.433594 " fill-opacity="1" fill-rule="nonzero"/></svg>